<?xml version="1.0" encoding="utf-8"?>
<!-- Generator: Adobe Illustrator 22.1.0, SVG Export Plug-In . SVG Version: 6.00 Build 0)  -->
<svg version="1.1" id="Слой_1" xmlns="http://www.w3.org/2000/svg" xmlns:xlink="http://www.w3.org/1999/xlink" x="0px" y="0px"
	 viewBox="0 0 1399.6 111.3" style="enable-background:new 0 0 1399.6 111.3;" xml:space="preserve">
<style type="text/css">
	.st0{clip-path:url(#SVGID_2_);}
</style>
<g>
	<defs>
		<rect id="SVGID_1_" y="0" width="1399.6" height="111.3"/>
	</defs>
	<clipPath id="SVGID_2_">
		<use xlink:href="#SVGID_1_"  style="overflow:visible;"/>
	</clipPath>
	<path class="st0" d="M0,73.6c0.2-0.2,0.4-0.4,0.4-0.6c0.2-0.6,0.6-0.8,1.2-0.8c0.2,0,0.4,0,0.6,0c8.4,0,16.9,0,25.3,0
		c0.5,0,1.1,0.1,1.7,0.1c0,0.5,0,0.8-0.1,1.1c-0.5,3.2-0.8,6.5-0.2,9.8c0.7,3.3,1.9,6.2,4.7,8.2c3.2,2.4,6.8,2.7,10.4,1
		c3.7-1.7,5.5-4.8,5.6-8.8c0.1-4-1.4-7.4-4.1-10.4c-2.8-3-6.1-5.2-9.6-7.1c-4.7-2.6-9.5-5.1-14.3-7.7c-4.6-2.5-9-5.5-12.6-9.3
		c-5.1-5.3-7.7-11.7-7.8-19C1.2,26,1.6,22,3,18.1C5.3,11.6,9.7,7,15.9,4.1c3.9-1.9,8.1-2.9,12.4-3.4c6-0.7,12.1-0.7,18.1-0.4
		c5.4,0.3,10.7,1.5,15.5,4.2c5.5,3.1,9,7.7,10.8,13.8c1.4,4.9,1.6,9.9,1.1,15c0,0.3-0.1,0.7-0.2,1c0,0.1-0.1,0.3-0.2,0.4H47.2
		c0.1-0.8,0.1-1.5,0.2-2.2c0.5-2.8,0.4-5.5-0.6-8.2c-2.4-6.7-10.7-8.8-16-4.1c-2.8,2.5-3.6,6.8-2,10.2c1.1,2.4,3,4.3,5.1,5.9
		c3.6,2.8,7.6,5,11.6,7.2c5.5,3,11,5.9,16,9.6c3.7,2.7,7,5.7,9.6,9.4c2.7,3.8,4.4,8,4.9,12.6c0.6,6.1-0.1,12-2.2,17.7
		c-2.7,7.2-7.7,12.2-14.8,15.2c-4.3,1.8-8.9,2.7-13.6,3c-3.3,0.2-6.6,0.3-9.9,0.2c-6-0.2-11.9-1.1-17.5-3.6
		c-8.1-3.6-13.3-9.8-15.8-18.2c-1-3.2-1.4-6.5-1.7-9.8c-0.1-0.5-0.3-0.9-0.5-1.3V73.6z M1381.2,64.9c0.1-3.4-0.6-6.7-1.9-9.9
		c-3.5-8.6-9.6-14-18.8-15.7c-8.4-1.5-15.8,0.8-22,6.6c-5.2,4.9-7.6,11.1-7.8,18.2c-0.1,4.2,0.6,8.3,2.4,12.1
		c3.7,7.8,9.8,12.7,18.3,14.2c7.1,1.3,13.7,0,19.4-4.4C1377.8,80.8,1380.9,73.5,1381.2,64.9 M1399.6,106.9c-0.5,0.1-1.1,0.2-1.6,0.2
		c-5.4,0-10.7,0-16.1,0c-0.2,0-0.4,0-0.6,0c-1-0.1-1.1-0.2-1.2-1.2c0-1,0-2,0-3c0-1.5,0-3.1,0-4.6c0-0.4-0.1-0.8-0.2-1.5
		c-0.6,0.6-1,0.9-1.3,1.2c-4.4,4.8-9.8,7.9-16,9.5c-4.8,1.3-9.6,1.6-14.6,1c-11.6-1.6-21-7-28.1-16.4c-4.1-5.4-6.7-11.5-7.8-18.3
		c-0.8-5-1-10-0.4-15c1.7-13.9,8.2-24.8,20.4-32.1c3.9-2.4,8.2-3.9,12.7-4.8c4.7-1,9.5-1.1,14.2-0.4c7.4,1.1,14,4.1,19.4,9.5
		c0.3,0.3,0.6,0.6,0.9,0.8c0.1,0.1,0.2,0,0.5,0.1c0-0.6,0.1-1.1,0.1-1.7c0-9.1,0-18.1,0-27.2c0-2.5,0-2.5,2.6-2.5c5,0,9.9,0,14.9,0
		c0.7,0,1.5,0.1,2.2,0.1V106.9z M312.8,108.2c-0.6,0-1.2,0.1-1.7,0.1c-7.5,0-15.1,0-22.6,0c-0.2,0-0.4,0-0.6,0
		c-1.1-0.1-1.2-0.2-1.3-1.2c0-0.3,0-0.7,0-1c0-3.4,0-6.8-0.1-10.3c-0.1-8.7-0.3-17.3-0.5-26c-0.2-8.5-0.3-16.9-0.5-25.4
		c-0.2-8.6-0.3-17.1-0.5-25.7c0-0.3-0.1-0.6-0.1-1c-0.6,0.3-0.6,0.8-0.7,1.3c-0.9,4.6-1.7,9.3-2.5,13.9c-1,5.4-2,10.7-3,16.1
		c-0.9,5.1-1.8,10.1-2.8,15.2c-1.2,6.5-2.4,12.9-3.6,19.4c-0.7,3.7-1.4,7.5-2,11.3c-0.7,4-1.5,8-2.2,12c-0.3,1.5-0.3,1.5-1.7,1.5
		c-7.7,0-15.5,0-23.2,0c-1.4,0-1.4-0.1-1.7-1.5c-1.2-6.4-2.4-12.7-3.6-19.1c-0.7-3.7-1.4-7.5-2.1-11.3c-1-5.5-2.1-10.9-3.1-16.3
		c-1-5.5-2.1-11.1-3.1-16.6c-0.9-4.6-1.8-9.2-2.6-13.9c-0.5-2.9-1.1-5.7-1.6-8.6c-0.1-0.7-0.3-1.4-0.8-2.1c-0.1,1.4-0.2,2.8-0.2,4.2
		c0,4.9-0.1,9.7-0.1,14.6c0,8.9-0.1,17.8-0.2,26.8c-0.1,10.1-0.2,20.1-0.2,30.2c0,4-0.1,8-0.1,12c0,1.6-0.1,1.7-1.7,1.7
		c-7.7,0-15.5,0-23.2,0c-0.3,0-0.6,0-0.9,0c-0.5,0-0.8-0.3-0.8-0.9c0-0.3,0-0.7,0-1c0.1-4.3,0.2-8.6,0.3-12.9
		c0.1-2.2,0.1-4.4,0.1-6.5c0.1-6.9,0.3-13.8,0.4-20.7c0.2-9.4,0.4-18.8,0.6-28.2c0.2-7.4,0.3-14.9,0.5-22.3
		c0.1-3.8,0.2-7.6,0.3-11.4c0-0.4,0.1-0.8,0.2-1.4h1.7c12.9,0,25.8,0,38.7,0c0.3,0,0.6,0,0.9,0c0.8,0,1.1,0.3,1.2,1.1
		c0.6,4.1,1.3,8.2,1.9,12.3c0.7,4.5,1.4,8.9,2.2,13.3c0.9,5.4,1.7,10.8,2.6,16.1c0.7,4.7,1.5,9.4,2.2,14.1c0.7,4.5,1.4,9.1,2.1,13.7
		c0.5,3.2,1,6.4,1.5,9.5c0.1,0.4,0.2,0.7,0.6,1.1c0.2-1.1,0.4-2.2,0.6-3.3c1.3-8.5,2.7-16.9,4-25.4c0.9-5.6,1.8-11.1,2.7-16.7
		c1.2-7.5,2.3-15,3.5-22.5c0.6-4.1,1.3-8.1,1.9-12.2c0.2-1.2,0.3-1.3,1.5-1.3c2.8,0,5.7,0,8.5,0c9.7,0,19.4,0,29.2,0
		c0.4,0,0.9,0,1.3,0c1,0.1,1.2,0.2,1.3,1.3c0.1,1.4,0.1,2.8,0.2,4.2c0.1,2.8,0.1,5.5,0.2,8.3c0.1,4.8,0.3,9.5,0.4,14.3
		c0.1,4.8,0.3,9.5,0.4,14.3c0.2,5.6,0.3,11.2,0.5,16.8c0.2,6,0.4,12,0.5,18c0.2,5.9,0.4,11.8,0.6,17.7c0.1,3,0.2,6,0.3,9.1
		C312.9,107.1,312.9,107.6,312.8,108.2 M599.2,3h25.5c0.1,0.1,0.2,0.1,0.2,0.2c0,0,0.1,0.1,0.1,0.1c0,0.2,0.1,0.4,0.1,0.6
		c0,34.5,0,68.9,0,103.4c0,0.2,0,0.4-0.1,0.6c0,0.1-0.1,0.2-0.2,0.4c-0.4,0-1,0.1-1.5,0.1c-11,0-22,0-33,0c-1.7,0-1.6,0-2.1-1.6
		c-2.3-7.3-4.7-14.6-7-21.9c-3.2-10.2-6.4-20.4-9.6-30.6c-2.8-8.9-5.7-17.8-8.5-26.8c-0.4-1.3-0.8-2.6-1.2-3.9c-0.1,0-0.2,0-0.3,0
		c0,0.4-0.1,0.8-0.1,1.2c0,4.1,0.1,8.1,0.2,12.2c0.1,5.9,0.1,11.8,0.2,17.7c0.1,10.9,0.2,21.7,0.3,32.6c0.1,6.3,0.2,12.7,0.3,19
		c0,0.4,0,0.8,0,1.2c0,0.6-0.3,0.9-0.9,0.9c-0.3,0-0.6,0-0.9,0c-7.2,0-14.5,0-21.7,0c-0.5,0-1.1-0.1-1.7-0.1V3c0.6,0,1-0.1,1.5-0.1
		c11.9,0,23.8,0,35.7,0c1.4,0,1.5,0.1,1.9,1.5c2,6.9,4.1,13.8,6.1,20.7c3.3,11.1,6.5,22.2,9.8,33.3c2.4,8.1,4.8,16.1,7.2,24.2
		c0.1,0.4,0.3,0.8,0.6,1.2c0.3-1,0.2-2,0.2-3c0-0.9-0.1-1.9-0.1-2.8c-0.1-8.9-0.2-17.7-0.2-26.6c0-2-0.1-4-0.1-5.9
		c-0.1-11.3-0.3-22.7-0.4-34c0-2.3-0.1-4.6-0.1-6.8C599.1,4.1,599.2,3.7,599.2,3 M481.5,3c0.7,0,1.2-0.1,1.7-0.1
		c8.1,0,16.2,0,24.2,0c0.1,0,0.3,0,0.4,0c1.4,0,1.4,0.1,1.5,1.4c0,0.2,0,0.5,0,0.7c0,25.2,0,50.5,0,75.7c0,5.1-1,9.9-3.4,14.4
		c-3.2,5.7-7.9,9.7-13.8,12.3c-5.2,2.3-10.8,3.2-16.5,3.6c-4,0.2-8,0-12-0.6c-6.9-1-13.4-3.3-18.9-7.8c-6.9-5.5-10.6-12.7-10.6-21.6
		c0-25.3,0-50.6,0-75.8c0-2.5-0.1-2.3,2.4-2.3c8,0,16,0,23.9,0c0.2,0,0.4,0,0.6,0c1.8,0,1.8,0,1.8,1.9c0,19.7,0,39.5,0,59.2
		c0,5.4,0,10.7,0,16.1c0,2,0.1,4,0.7,6c2.1,7.4,10,7.9,13.8,5.1c2-1.5,3.1-3.6,3.5-6c0.3-1.9,0.5-3.8,0.5-5.8c0-24.7,0-49.5,0-74.2
		C481.4,4.4,481.5,3.8,481.5,3 M698.2,63.7h-1.8c-2.6,0-5.2,0-7.7,0c-1.6,0-1.6-0.1-1.6-1.6c0-4.1,0-8.2,0-12.3
		c0-1.4,0.1-1.5,1.5-1.5c6.3,0,12.6,0,18.9,0c5.2,0,10.3,0,15.5,0c0.4,0,0.8,0,1.2,0c0.5,0,0.7,0.3,0.7,0.8c0,0.4,0,0.8,0,1.2
		c0,10,0,19.9,0,29.9c0,4-0.3,8-1.6,11.9c-1.8,5.2-5,9.1-9.8,11.6c-4.2,2.2-8.7,3.3-13.3,4c-4.5,0.6-9,0.8-13.5,0.7
		c-6.7-0.2-13.2-1-19.5-3.6c-5-2.1-9.3-5.1-12.2-9.7c-2-3.1-3.2-6.6-3.5-10.3c-0.2-1.8-0.2-3.6-0.2-5.3c0-16,0-32,0-48
		c0-2.3,0.2-4.6,0.6-6.8c1.4-8.5,5.9-14.9,13.4-19.1c4.5-2.5,9.3-4,14.3-4.6c3-0.4,6.1-0.7,9.2-0.7c5.1,0,10.2,0.3,15.2,1.6
		c9.7,2.5,16.2,8.3,19.3,17.9c1.3,4,1.9,8.2,2.1,12.4c0,1,0.2,2,0.2,3c0,0.9-0.2,1.1-1.1,1.2c-0.3,0-0.7,0-1,0c-7.6,0-15.3,0-22.9,0
		h-1.9c-0.1-1.3-0.1-2.4-0.2-3.5c-0.3-2.2-0.4-4.5-0.9-6.6c-1.2-5.2-4.2-6.9-9.1-6.9c-1.3,0-2.6,0.2-3.8,0.6c-2.8,0.9-4.5,3-5.2,5.9
		c-0.4,1.8-0.7,3.7-0.7,5.6c-0.1,16.6,0,33.1,0,49.7c0,1.5,0.3,3,0.6,4.4c0.6,2.5,2.4,4.1,4.8,4.9c2.9,0.9,5.8,0.9,8.6-0.1
		c3.6-1.2,5.2-3.9,5.7-7.5c0.1-0.5,0.1-1,0.1-1.5c0-5.3,0-10.6,0-15.9C698.3,64.7,698.2,64.4,698.2,63.7 M1009.5,23
		c0.8-0.1,1.4-0.1,1.9-0.1c5.4,0,10.7,0,16.1,0c1.7,0,1.8,0.1,2.3,1.7c1.6,4.9,3.2,9.8,4.7,14.7c1.8,5.5,3.5,11,5.2,16.5
		c2,6.1,4,12.2,5.9,18.4c0.5,1.6,1,3.1,1.5,4.7c0.1,0.4,0.4,0.8,0.7,1.5c0.4-1,0.7-1.6,1-2.3c2.9-7.9,5.8-15.8,8.6-23.7
		c3.6-9.9,7.2-19.8,10.8-29.7c0.6-1.7,0.6-1.7,2.4-1.7c5.2,0,10.4,0,15.6,0c1.8,0,1.9,0,2.5,1.7c2.9,8.1,5.7,16.1,8.6,24.2
		c2.4,6.7,4.8,13.3,7.2,20c1.3,3.7,2.6,7.4,3.9,11c0,0.1,0.1,0.3,0.3,0.5c0.6-0.3,0.7-0.8,0.9-1.3c2.3-7.1,4.7-14.2,7-21.3
		c2.2-6.5,4.4-13,6.5-19.6c1.5-4.6,3-9.1,4.5-13.7c0.5-1.4,0.6-1.5,2.1-1.5c5.4,0,10.8,0,16.2,0c0.5,0,1,0.1,1.6,0.1
		c-0.1,0.6-0.1,1.1-0.2,1.6c-1.9,5.5-3.9,11-5.8,16.5c-2,5.6-3.9,11.2-5.9,16.8c-1.8,5-3.5,10-5.3,15c-1.8,5-3.5,10-5.2,15
		c-1.7,5-3.5,10-5.3,15c-0.4,1-0.7,2.1-1.1,3.1c-0.4,1.1-0.6,1.2-1.7,1.2c-5.4,0-10.8,0-16.2,0c-1.2,0-1.3-0.2-1.7-1.3
		c-3.5-9.5-7-19-10.5-28.6c-3.2-8.7-6.4-17.5-9.5-26.2c-0.2-0.5-0.4-1-0.8-1.7c-0.3,0.6-0.6,1-0.8,1.4c-1.7,4.6-3.5,9.3-5.2,13.9
		c-2.2,5.8-4.4,11.6-6.5,17.4c-2.2,5.7-4.3,11.5-6.5,17.2c-0.8,2.3-1.7,4.5-2.5,6.8c-0.2,0.6-0.6,1-1.3,1c-0.2,0-0.4,0-0.6,0
		c-5.4,0-10.7,0-16.1,0c-1.3,0-1.6,0-2-1.4c-1.5-4.8-3.2-9.6-4.8-14.4c-1.6-4.7-3.2-9.4-4.7-14.1c-1.3-3.9-2.6-7.9-3.9-11.8
		c-1.6-4.7-3.1-9.4-4.7-14.1c-1.5-4.6-3.1-9.2-4.6-13.8c-1.3-4-2.7-8.1-4-12.1C1009.9,24.8,1009.8,24,1009.5,23 M383.5,34.7
		c0.2-1.4,0.3-2.7,0.4-4c0.2-2.9-0.2-5.7-1.7-8.3c-3.4-5.8-12.2-6.3-16.1-0.9c-2.4,3.3-2.4,7.8,0.7,11.5c2.3,2.8,5.2,4.8,8.3,6.6
		c4.8,2.8,9.8,5.5,14.6,8.2c4.5,2.6,8.9,5.4,12.7,9c3.9,3.6,7,7.7,8.7,12.7c1.1,3.3,1.5,6.6,1.4,10.1c-0.1,3.5-0.5,6.9-1.4,10.3
		c-2.5,9.1-8.1,15.2-16.9,18.6c-3.9,1.5-7.9,2.3-12,2.5c-2.6,0.2-5.2,0.3-7.9,0.3c-5,0-9.9-0.5-14.7-1.8c-5.9-1.6-11.1-4.4-15.2-9.1
		c-3.5-4.1-5.6-8.8-6.7-14.1c-0.9-4.1-1.1-8.3-1-12.6c0-1.4,0.2-1.6,1.7-1.6c8.6,0,17.2,0,25.7,0c0.4,0,0.9,0.1,1.5,0.2
		c-0.1,1-0.2,1.9-0.3,2.7c-0.6,4.4-0.4,8.7,1.7,12.7c2.2,4,6.3,6.1,10.7,5.4c4.5-0.7,7.9-4.2,8.3-8.8c0.4-4.4-1.2-8.1-4.1-11.2
		c-2.8-3-6.1-5.2-9.7-7.1c-4.8-2.6-9.6-5.1-14.4-7.7c-4.6-2.6-8.9-5.5-12.6-9.4c-4.9-5.2-7.5-11.4-7.6-18.6c0-3.8,0.2-7.5,1.3-11.2
		c2.3-7.4,7.2-12.5,14.3-15.6c5.2-2.3,10.6-3.3,16.2-3.4c4.5-0.1,9-0.2,13.5,0c6,0.3,11.8,1.8,17,5.3c5.4,3.6,8.4,8.8,9.7,15.1
		c0.9,4.2,0.8,8.5,0.5,12.7c-0.1,1.4-0.2,1.5-1.5,1.5c-8,0-16,0-23.9,0C384.4,34.8,384,34.7,383.5,34.7 M111,3
		c0.7,0,1.2-0.1,1.8-0.1c14.5,0,29,0,43.4,0c1.6,0,1.7,0,2,1.7c1.2,6.7,2.3,13.4,3.5,20.1c1.2,6.6,2.4,13.3,3.6,19.9
		c0.9,5,1.7,10,2.6,15.1c0.9,5,1.8,9.9,2.7,14.9c0.9,4.9,1.7,9.8,2.6,14.6c0.7,3.9,1.4,7.9,2.1,11.8c0.4,2,0.7,4.1,1.1,6.1
		c0,0.3,0,0.6,0,1c-0.5,0.1-0.9,0.2-1.3,0.2c-8.2,0-16.5,0-24.7,0c-1.5,0-1.5,0-1.7-1.6c-0.7-4.9-1.5-9.7-2.2-14.6
		c-0.7-5-1.4-9.9-2.1-14.9c-0.7-5-1.5-10-2.2-15c-0.7-5-1.4-9.9-2.1-14.9c-0.7-4.7-1.4-9.3-2-14c-0.8-5.2-1.5-10.4-2.3-15.6
		c-0.1-0.7-0.3-1.3-0.6-2c-0.1,0.2-0.2,0.5-0.3,0.7c-1.1,7-2.2,14-3.3,21c-0.9,5.7-1.7,11.4-2.6,17c-1,6.7-2.1,13.3-3.1,20
		c-1.1,6.8-2.1,13.6-3.1,20.4c-0.6,4-1.2,7.9-1.9,11.9c-0.2,1.3-0.3,1.4-1.6,1.4c-4.9,0-9.7,0-14.6,0c-3.4,0-6.8,0-10.3,0
		c-0.5,0-1.1,0-1.6-0.1c-0.1-0.3-0.2-0.5-0.1-0.7C98.8,72.8,104.9,38,111,3 M1222.6,64.2c-0.2-1.3-0.3-3.1-0.7-5
		c-0.9-4.9-3.2-9.2-6.7-12.9c-3.6-3.8-8.1-6.1-13.3-7c-5.1-1-10.1-0.5-14.8,1.7c-9.4,4.3-14.4,11.8-15.1,22.1
		c-0.4,6,0.9,11.6,4.3,16.6c3.9,5.9,9.4,9.5,16.4,10.8c7,1.3,13.6,0,19.3-4.3C1219.1,80.9,1222.3,73.6,1222.6,64.2 M1221.4,32
		c0-0.5,0.1-1,0.1-1.6c0-2,0-4,0-5.9c0-1.5,0.2-1.6,1.6-1.6c5.4,0,10.8,0,16.2,0c1.5,0,1.6,0.1,1.6,1.6c0,0.2,0,0.4,0,0.6v80v1.7
		c-1.3,0.4-17.7,0.5-19.4,0.1c0-0.5-0.1-1-0.1-1.5c0-2.2,0-4.4,0-6.5c0-0.5-0.1-1-0.1-1.9c-0.5,0.4-0.9,0.6-1.1,0.8
		c-3.4,3.7-7.4,6.5-12.1,8.4c-5.9,2.4-12,3.2-18.3,2.4c-6.1-0.7-11.8-2.7-17-5.9c-8.7-5.4-14.6-13.1-17.9-22.8
		c-1.7-5.1-2.2-10.4-2.1-15.8c0.1-3.2,0.3-6.3,0.9-9.5c1.3-6.1,3.7-11.7,7.4-16.7c5-6.9,11.6-11.6,19.5-14.4
		c6.5-2.3,13.2-2.9,19.9-1.9c7.4,1.1,14,4.2,19.4,9.6c0.3,0.3,0.7,0.6,1.1,1C1221.1,32.1,1221.3,32.1,1221.4,32 M922.6,65.1
		c0.1-4.6-1-9-3.3-13c-5.8-10.3-17.8-15.4-29.3-11.2c-9,3.3-14.1,10.2-15.8,19.4c-1,5.1-0.4,10.2,1.7,15.2
		c3.8,9.1,12.5,14.9,22,14.9c5.5,0,10.4-1.5,14.7-4.8C919.4,80.5,922.5,73.5,922.6,65.1 M941.9,65.1c-0.6,17-7.9,30-22.8,38.4
		c-8.1,4.6-16.9,6-26.1,5c-7.4-0.9-14.1-3.4-20.2-7.7C866.1,96,861.2,89.6,858,82c-3.2-7.4-4.1-15.2-2.9-23
		c2.2-15,10.1-26.1,23.5-33.1c4.1-2.1,8.4-3.6,12.9-4.2c5-0.7,10-0.7,14.9,0.3c10,2,18.3,6.9,24.9,14.5c4.5,5.2,7.5,11.1,9.1,17.8
		C941.4,57.8,941.8,61.4,941.9,65.1 M806.7,106.8c-1.3,0.4-17.3,0.5-19.3,0.2c-0.1-0.3-0.1-0.7-0.2-1.1c0-0.4,0-0.8,0-1.2
		c0-33.4,0-66.7,0-100.1c0-2.7-0.1-2.5,2.5-2.5c18.1,0,36.3,0,54.4,0c2.5,0,2.5,0,2.5,2.4c0,4.7,0,9.3,0,14c0,0.4,0,0.9,0,1.3
		c0,0.6-0.4,0.9-0.9,0.9c-0.5,0-1,0-1.5,0c-11.7,0-23.5,0-35.2,0c-2.2,0-2.2,0-2.2,2.2c0,6.5,0,13.1,0,19.6c0,0.3,0,0.7,0,1
		c0.1,1,0.3,1.2,1.2,1.3c0.4,0,0.9,0,1.3,0c11.7,0,23.4,0,35.1,0c2.2,0,2.3,0,2.3,2.2c0,4.8,0,9.6,0,14.4c0,0.2,0,0.5,0,0.7
		c0,1.2-0.2,1.3-1.4,1.3c-0.4,0-0.8,0-1.2,0c-11.6,0-23.3,0-34.9,0c-2.6,0-2.4,0-2.4,2.3c0,13,0,26,0,39
		C806.7,105.6,806.7,106.2,806.7,106.8 M1300.4,44.7c-0.6-0.3-1.1-0.6-1.6-0.9c-3.8-2.1-7.9-2.4-12.1-2.1c-2.5,0.2-4.9,0.8-7.1,2
		c-3.1,1.7-5.1,4.3-6.3,7.6c-1.3,3.6-1.6,7.3-1.6,11c0,14.1,0,28.3,0,42.4v2c-1.2,0.4-17.6,0.5-19.2,0.2c-0.3-1.3-0.3-82.5,0-83.9
		c0.4,0,0.8-0.1,1.2-0.1c5.4,0,10.8,0,16.2,0c1.5,0,1.6,0.1,1.6,1.6c0,2.7,0,5.5,0,8.2c0,0.5,0,1,0.1,1.6c0.7-0.3,0.9-0.7,1.2-1.2
		c2.3-3.9,5.5-6.7,9.8-8.3c4.2-1.6,8.6-2.1,13.1-1.7c3.7,0.3,7.3,1.1,10.7,2.8c1.4,0.7,1.5,0.8,1,2.2c-2.1,5.2-4.1,10.5-6.2,15.7
		C1300.9,44.1,1300.6,44.3,1300.4,44.7 M950.6,23c0.4,0,0.9-0.1,1.4-0.1c5.3,0,10.6,0,15.9,0c1.6,0,1.7,0.1,1.7,1.7c0,2.7,0,5.4,0,8
		c0,0.5,0,1.1,0,1.6c0.1,0,0.2,0.1,0.3,0.1c0.3-0.4,0.6-0.7,0.8-1.1c2.6-4.5,6.4-7.5,11.3-9c3.4-1.1,6.9-1.5,10.4-1.3
		c4.2,0.2,8.2,1,12,2.9c0.5,0.2,0.9,0.6,1.4,0.9c-2.4,6.1-4.7,12-7.2,18c-0.5-0.2-0.9-0.2-1.1-0.4c-4-2.4-8.4-2.9-12.9-2.5
		c-2.4,0.2-4.8,0.8-7,1.9c-3.1,1.7-5.1,4.3-6.3,7.6c-1.3,3.6-1.6,7.3-1.6,11.1c0,14.1,0,28.3,0,42.4v2c-1.3,0.4-17.9,0.5-19.3,0.1
		C950.3,105.4,950.3,24.2,950.6,23"/>
</g>
</svg>
