<?xml version="1.0" encoding="utf-8"?>
<!-- Generator: Adobe Illustrator 22.1.0, SVG Export Plug-In . SVG Version: 6.00 Build 0)  -->
<svg version="1.1" id="Слой_1" xmlns="http://www.w3.org/2000/svg" xmlns:xlink="http://www.w3.org/1999/xlink" x="0px" y="0px"
	 viewBox="0 0 260.6 85" style="enable-background:new 0 0 260.6 85;" xml:space="preserve">
<style type="text/css">
	.st0{clip-path:url(#SVGID_2_);}
	.st1{clip-path:url(#SVGID_4_);}
	.st2{clip-path:url(#SVGID_6_);fill:url(#SVGID_7_);}
	.st3{filter:url(#Adobe_OpacityMaskFilter);}
	.st4{clip-path:url(#SVGID_9_);}
	.st5{enable-background:new    ;}
	.st6{clip-path:url(#SVGID_12_);fill:url(#SVGID_13_);}
	.st7{clip-path:url(#SVGID_9_);mask:url(#SVGID_10_);}
	.st8{clip-path:url(#SVGID_15_);fill:#FFFFFF;}
	.st9{clip-path:url(#SVGID_17_);}
	.st10{filter:url(#Adobe_OpacityMaskFilter_1_);}
	.st11{clip-path:url(#SVGID_19_);}
	.st12{clip-path:url(#SVGID_22_);fill:url(#SVGID_23_);}
	.st13{clip-path:url(#SVGID_19_);mask:url(#SVGID_20_);}
	.st14{clip-path:url(#SVGID_25_);fill:#FFFFFF;}
</style>
<g>
	<defs>
		<rect id="SVGID_1_" width="260.6" height="85"/>
	</defs>
	<clipPath id="SVGID_2_">
		<use xlink:href="#SVGID_1_"  style="overflow:visible;"/>
	</clipPath>
	<g class="st0">
		<defs>
			<rect id="SVGID_3_" y="0" width="260.6" height="85"/>
		</defs>
		<clipPath id="SVGID_4_">
			<use xlink:href="#SVGID_3_"  style="overflow:visible;"/>
		</clipPath>
		<path class="st1" d="M244.4,35.5c-0.5,0-0.9,0.4-0.9,0.9v8.4H233v-8.4c0-0.5-0.4-0.9-0.9-0.9h-2.9c-0.5,0-0.8,0.4-0.8,0.9v21.5
			c0,0.5,0.4,0.9,0.8,0.9h2.9c0.5,0,0.9-0.4,0.9-0.9V49h10.5v8.9c0,0.5,0.4,0.9,0.9,0.9h2.9c0.4,0,0.8-0.4,0.8-0.9V36.4
			c0-0.5-0.4-0.9-0.8-0.9H244.4z M222,26c0.5,0,0.9,0.4,0.9,0.9v2.7c0,0.5-0.4,0.9-0.9,0.9h-18c-0.5,0-0.9-0.4-0.9-0.9v-2.7
			c0-0.5,0.4-0.9,0.9-0.9H222z M105.6,26c-0.5,0-0.9,0.4-0.9,0.9V49c0,5.9,1.9,9.9,9.3,9.9h0.9c10.6,0,12.2-7,12.2-10.6
			c0-3.2-1.2-10.7-11.7-10.7h-5.9v-7.2h13.6c0.5,0,0.9-0.4,0.9-0.9v-2.7c0-0.5-0.4-0.9-0.9-0.9H105.6z M115.6,41.9
			c4.3,0,6.7,2.3,6.7,6.4c0,4-2.4,6.2-6.7,6.2h-1.5c-3.2,0-4.5-1.4-4.5-5v-7.5H115.6z M182.4,36c-0.3,0.1-0.5,0.5-0.5,0.8v2.7
			c0,0.2,0.2,0.5,0.3,0.6c0.2,0.1,0.5,0.2,0.7,0.1c1.6-0.5,3.4-1.1,6.4-1.1c3.7,0,4.4,1.1,4.4,3.8v0.5l-5.1,0.4
			c-8.3,0.6-8.7,5.9-8.7,7.6c0,4.9,2.6,7.9,8.8,7.9c1.9,0,4.1-0.6,6-1.8l0.4,0.9c0.1,0.3,0.4,0.5,0.8,0.5h1.7c0.4,0,0.8-0.4,0.8-0.8
			V42.9c0-5.5-2.9-8.2-9.1-8.2C186.7,34.7,184.2,35.2,182.4,36 M184.8,51.3c0-1.6,0.3-3.4,3.7-3.7l5.1-0.5l0.1,6.2
			c-1.6,1-2.9,1.5-4.9,1.5C186.8,54.9,184.8,54.1,184.8,51.3 M146.8,58.3c0.1,0.3,0.4,0.5,0.8,0.5h2.1c0.4,0,0.8-0.4,0.8-0.8V36.4
			c0-0.5-0.4-0.9-0.9-0.9h-2.8c-0.5,0-0.9,0.4-0.9,0.9v15.1c-1.5,1.6-4.3,3.1-6.4,3.1c-2.9,0-4.3-1.6-4.3-5.6V36.4
			c0-0.5-0.4-0.9-0.9-0.9h-2.8c-0.5,0-0.9,0.4-0.9,0.9v14c0,5.1,2.8,8.7,8.1,8.7c3.3,0,6.2-1.8,7.6-3L146.8,58.3z M219.4,58.3
			c0.1,0.3,0.4,0.5,0.8,0.5h2.1c0.4,0,0.8-0.4,0.8-0.8V36.4c0-0.5-0.3-0.9-0.9-0.9h-2.8c-0.5,0-0.9,0.4-0.9,0.9v15.1
			c-1.5,1.6-4.3,3.1-6.4,3.1c-2.9,0-4.3-1.6-4.3-5.6V36.4c0-0.5-0.4-0.9-0.9-0.9H204c-0.5,0-0.9,0.4-0.9,0.9v14
			c0,5.1,2.8,8.7,8.1,8.7c3.3,0,6.2-1.8,7.6-3L219.4,58.3z M157.7,50.6c-0.3,3.1-1.1,3.9-3.8,4.2c-0.4,0.1-0.8,0.5-0.8,0.9v2.4
			c0,0.5,0.4,0.9,0.8,0.9c5.2,0,7.8-2.5,8.3-8.6l0.5-5.5c0.4-3.8,1.1-5,4.6-5h3.8v18c0,0.5,0.4,0.9,0.9,0.9h2.8
			c0.4,0,0.9-0.4,0.9-0.9V36.4c0-0.5-0.5-0.9-0.9-0.9h-7.8c-6.4,0-8.3,3.7-8.8,9L157.7,50.6z"/>
		<path class="st1" d="M256.7,34.3c2.1,0,4,0.7,4,3.9c0,3.2-1.9,3.9-4,3.9c-2.1,0-4-0.7-4-3.9C252.7,35,254.6,34.3,256.7,34.3
			 M256.7,35c-1.9,0-3.2,0.4-3.2,3.2c0,2.8,1.4,3.2,3.2,3.2c1.9,0,3.2-0.4,3.2-3.2C259.9,35.4,258.6,35,256.7,35 M255.8,40.3v-1.6
			h1.1l0.8,1.6c0,0.1,0.1,0.1,0.2,0.1h0.5c0.1,0,0.1-0.1,0.1-0.1l-1-1.7c0.5-0.2,0.7-0.6,0.7-1.2c0-0.8-0.3-1.3-1.4-1.3h-1.6
			c-0.1,0-0.1,0.1-0.1,0.1v4.1c0,0.1,0.1,0.1,0.1,0.1h0.4C255.7,40.4,255.8,40.3,255.8,40.3 M255.8,36.7h1.1c0.6,0,0.7,0.3,0.7,0.7
			c0,0.3-0.1,0.6-0.7,0.6h-1.1V36.7z"/>
	</g>
	<g class="st0">
		<defs>
			<path id="SVGID_5_" d="M1,51.7c1.5,6.8,4.6,13,9,18.2h65.1c4.3-5.2,7.5-11.4,9-18.2H1z M9.9,15.3C5.6,20.4,2.5,26.6,1,33.5h83.1
				c-1.5-6.8-4.6-13-8.9-18.2H9.9z"/>
		</defs>
		<clipPath id="SVGID_6_">
			<use xlink:href="#SVGID_5_"  style="overflow:visible;"/>
		</clipPath>
		
			<linearGradient id="SVGID_7_" gradientUnits="userSpaceOnUse" x1="0" y1="85.04" x2="1" y2="85.04" gradientTransform="matrix(85.0395 0 0 -85.0395 0 7274.3125)">
			<stop  offset="0" style="stop-color:#E69E44"/>
			<stop  offset="0.1" style="stop-color:#E69E44"/>
			<stop  offset="0.9" style="stop-color:#FDE044"/>
			<stop  offset="0.9862" style="stop-color:#FDE044"/>
			<stop  offset="1" style="stop-color:#FDE044"/>
		</linearGradient>
		<rect x="1" y="15.3" class="st2" width="83.1" height="54.6"/>
	</g>
	<g class="st0">
		<defs>
			<rect id="SVGID_8_" y="0" width="260.6" height="85"/>
		</defs>
		<clipPath id="SVGID_9_">
			<use xlink:href="#SVGID_8_"  style="overflow:visible;"/>
		</clipPath>
		<defs>
			<filter id="Adobe_OpacityMaskFilter" filterUnits="userSpaceOnUse" x="26.7" y="3.4" width="51.6" height="51.6">
				<feColorMatrix  type="matrix" values="1 0 0 0 0  0 1 0 0 0  0 0 1 0 0  0 0 0 1 0"/>
			</filter>
		</defs>
		<mask maskUnits="userSpaceOnUse" x="26.7" y="3.4" width="51.6" height="51.6" id="SVGID_10_">
			<g class="st3">
				<rect x="26.7" y="3.4" class="st4" width="51.6" height="51.6"/>
				<g class="st5">
					<g>
						<defs>
							<path id="SVGID_11_" d="M78.3,29.2C78.3,15,66.7,3.4,52.5,3.4C38.3,3.4,26.7,15,26.7,29.2C26.7,43.4,38.3,55,52.5,55
								C66.7,55,78.3,43.4,78.3,29.2"/>
						</defs>
						<clipPath id="SVGID_12_" class="st4">
							<use xlink:href="#SVGID_11_"  style="overflow:visible;"/>
						</clipPath>
						
							<radialGradient id="SVGID_13_" cx="3.070152e-06" cy="85.04" r="1" gradientTransform="matrix(25.7821 0 0 -25.7821 52.5034 2221.7168)" gradientUnits="userSpaceOnUse">
							<stop  offset="0" style="stop-color:#615F5B"/>
							<stop  offset="0.2" style="stop-color:#615F5B"/>
							<stop  offset="0.3459" style="stop-color:#5D5A57"/>
							<stop  offset="0.5368" style="stop-color:#53504B"/>
							<stop  offset="0.7528" style="stop-color:#383632"/>
							<stop  offset="0.9855" style="stop-color:#090908"/>
							<stop  offset="1" style="stop-color:#000000"/>
						</radialGradient>
						<rect x="26.7" y="3.4" class="st6" width="51.6" height="51.6"/>
					</g>
				</g>
			</g>
		</mask>
		<g class="st7">
			<g>
				<defs>
					<rect id="SVGID_14_" x="26.7" y="3.4" width="51.6" height="51.6"/>
				</defs>
				<clipPath id="SVGID_15_">
					<use xlink:href="#SVGID_14_"  style="overflow:visible;"/>
				</clipPath>
				<path class="st8" d="M78.3,29.2C78.3,15,66.7,3.4,52.5,3.4S26.7,15,26.7,29.2C26.7,43.4,38.3,55,52.5,55S78.3,43.4,78.3,29.2"/>
			</g>
		</g>
	</g>
	<g class="st0">
		<defs>
			<path id="SVGID_16_" d="M42.5,0C19,0,0,19,0,42.5C0,66,19,85,42.5,85C66,85,85,66,85,42.5C85,19,66,0,42.5,0z"/>
		</defs>
		<clipPath id="SVGID_17_">
			<use xlink:href="#SVGID_16_"  style="overflow:visible;"/>
		</clipPath>
		<path class="st9" d="M85,15.3H0V0h85V15.3z M85,69.8H0V85h85V69.8z M85,33.5H0v18.2h85V33.5z"/>
	</g>
	<g class="st0">
		<defs>
			<path id="SVGID_18_" d="M0,51.7h85V33.5H0V51.7z M0,15.3h85V0H0V15.3z"/>
		</defs>
		<clipPath id="SVGID_19_">
			<use xlink:href="#SVGID_18_"  style="overflow:visible;"/>
		</clipPath>
		<defs>
			<filter id="Adobe_OpacityMaskFilter_1_" filterUnits="userSpaceOnUse" x="26.7" y="3.4" width="51.6" height="51.6">
				<feColorMatrix  type="matrix" values="1 0 0 0 0  0 1 0 0 0  0 0 1 0 0  0 0 0 1 0"/>
			</filter>
		</defs>
		<mask maskUnits="userSpaceOnUse" x="26.7" y="3.4" width="51.6" height="51.6" id="SVGID_20_">
			<g class="st10">
				<rect x="26.7" y="3.4" class="st11" width="51.6" height="51.6"/>
				<g class="st5">
					<g>
						<defs>
							<path id="SVGID_21_" d="M78.3,29.2C78.3,15,66.7,3.4,52.5,3.4C38.3,3.4,26.7,15,26.7,29.2C26.7,43.4,38.3,55,52.5,55
								C66.7,55,78.3,43.4,78.3,29.2"/>
						</defs>
						<clipPath id="SVGID_22_" class="st11">
							<use xlink:href="#SVGID_21_"  style="overflow:visible;"/>
						</clipPath>
						
							<radialGradient id="SVGID_23_" cx="3.070152e-06" cy="85.04" r="1" gradientTransform="matrix(25.7821 0 0 -25.7821 52.5034 2221.7168)" gradientUnits="userSpaceOnUse">
							<stop  offset="0" style="stop-color:#514E49"/>
							<stop  offset="0.2" style="stop-color:#514E49"/>
							<stop  offset="0.3798" style="stop-color:#4E4B45"/>
							<stop  offset="0.6151" style="stop-color:#3A3834"/>
							<stop  offset="0.88" style="stop-color:#1B1A19"/>
							<stop  offset="1" style="stop-color:#000000"/>
						</radialGradient>
						<rect x="26.7" y="3.4" class="st12" width="51.6" height="51.6"/>
					</g>
				</g>
			</g>
		</mask>
		<g class="st13">
			<g>
				<defs>
					<rect id="SVGID_24_" x="26.7" y="3.4" width="51.6" height="51.6"/>
				</defs>
				<clipPath id="SVGID_25_">
					<use xlink:href="#SVGID_24_"  style="overflow:visible;"/>
				</clipPath>
				<path class="st14" d="M78.3,29.2C78.3,15,66.7,3.4,52.5,3.4S26.7,15,26.7,29.2C26.7,43.4,38.3,55,52.5,55S78.3,43.4,78.3,29.2"
					/>
			</g>
		</g>
	</g>
</g>
</svg>
